<?xml version="1.0" standalone="no"?>
<!DOCTYPE svg PUBLIC "-//W3C//DTD SVG 20010904//EN"
 "http://www.w3.org/TR/2001/REC-SVG-20010904/DTD/svg10.dtd">
<svg version="1.0" xmlns="http://www.w3.org/2000/svg"
 width="653.000000pt" height="649.000000pt" viewBox="0 0 653.000000 649.000000"
 preserveAspectRatio="xMidYMid meet">

<g transform="translate(0.000000,649.000000) scale(0.100000,-0.100000)"
fill="#000000" stroke="none">
<path d="M2985 6443 c-394 -47 -599 -95 -880 -205 -955 -375 -1665 -1174
-1934 -2178 -66 -246 -95 -490 -96 -790 0 -391 50 -699 169 -1045 336 -981
1138 -1746 2129 -2031 144 -41 316 -77 487 -101 178 -24 635 -25 810 0 447 63
812 187 1186 403 562 324 1002 799 1283 1384 229 480 322 921 308 1475 -12
483 -115 902 -326 1323 -173 345 -362 604 -632 867 -524 510 -1156 808 -1884
890 -117 13 -533 19 -620 8z m2116 -1857 c157 -20 228 -39 334 -91 157 -77
260 -206 295 -367 37 -169 -22 -405 -181 -721 -194 -385 -474 -584 -919 -653
-78 -12 -205 -18 -496 -21 l-392 -5 -157 -372 c-87 -204 -163 -379 -169 -389
-10 -16 -79 -17 -1321 -17 -933 0 -1309 3 -1307 11 1 6 46 113 99 237 52 125
122 290 155 367 32 77 80 188 105 247 l47 108 268 2 269 3 147 345 148 345
-263 3 c-155 1 -263 6 -263 12 0 5 15 44 34 87 37 85 334 785 359 846 l16 37
1538 0 c1276 0 1558 -2 1654 -14z m-1424 -2528 c15 -14 23 -32 22 -52 l-2 -31
-6 35 c-12 69 -97 81 -126 17 -11 -23 -13 -25 -9 -7 15 60 76 80 121 38z m-21
-23 c4 -8 1 -21 -5 -29 -6 -7 -10 -15 -8 -17 1 -2 -2 -1 -7 3 -15 12 -24 9
-29 -9 -3 -10 -5 1 -6 25 -1 39 1 42 24 42 14 0 28 -7 31 -15z m-36 -95 c6 0
25 7 43 16 28 14 30 14 17 1 -27 -28 -63 -30 -93 -7 -15 12 -27 25 -27 30 0 5
11 -2 25 -15 13 -14 29 -25 35 -25z"/>
<path d="M2022 4403 c-6 -10 -53 -121 -107 -248 -53 -126 -108 -254 -121 -284
-13 -29 -24 -57 -24 -62 0 -5 119 -9 264 -9 l265 0 -19 -42 c-10 -24 -89 -209
-175 -413 -87 -203 -167 -392 -179 -420 -13 -27 -35 -80 -51 -117 l-28 -68
-269 -2 -270 -3 -70 -165 c-38 -91 -96 -227 -128 -302 l-58 -138 1121 0 1122
0 22 53 c12 28 70 164 128 300 58 137 105 250 105 253 0 2 -121 5 -268 6
l-269 3 35 82 34 82 727 4 c686 4 732 5 836 25 140 27 218 52 330 108 191 94
301 216 425 469 44 88 96 210 117 270 34 102 37 119 38 225 0 106 -2 119 -27
165 -48 92 -144 163 -271 199 -153 44 -175 45 -1739 45 -1409 1 -1488 0 -1496
-16z m3068 -94 c46 -5 120 -22 165 -37 68 -22 89 -34 136 -82 51 -50 57 -61
68 -120 18 -99 -5 -194 -103 -427 -137 -324 -309 -494 -582 -574 -181 -53
-177 -53 -993 -58 l-763 -6 -74 -173 c-41 -96 -74 -176 -74 -178 0 -2 119 -4
265 -4 183 0 265 -3 265 -11 0 -6 -39 -103 -87 -215 l-86 -204 -1014 0 c-557
0 -1013 3 -1013 8 0 4 40 99 88 212 l88 205 270 3 269 3 22 52 c12 29 89 210
171 402 284 667 332 781 332 788 0 4 -118 8 -263 9 l-263 3 72 170 c40 94 80
187 88 208 l16 37 1458 0 c964 0 1486 -4 1542 -11z"/>
<path d="M3374 3843 c-14 -32 -38 -89 -54 -128 -15 -38 -46 -112 -69 -163 -23
-51 -41 -100 -41 -108 0 -13 61 -15 523 -12 519 3 522 3 580 26 114 46 202
139 232 244 19 68 10 110 -29 147 -51 48 -83 51 -618 51 l-498 0 -26 -57z
m1061 -55 c24 -11 26 -16 20 -47 -4 -19 -13 -47 -20 -61 -23 -45 -99 -106
-159 -129 -55 -20 -72 -21 -491 -21 -239 0 -435 3 -435 6 0 3 20 51 44 107 25
56 49 114 55 130 l11 27 474 0 c347 0 482 -3 501 -12z"/>
<path d="M3610 2030 c0 -5 9 -10 21 -10 11 0 17 5 14 10 -3 6 -13 10 -21 10
-8 0 -14 -4 -14 -10z"/>
</g>
</svg>
